<?xml version="1.0" encoding="UTF-8" standalone="no"?>
<!-- Created with Inkscape (http://www.inkscape.org/) -->

<svg
   width="206.1796mm"
   height="197.41899mm"
   viewBox="0 0 206.1796 197.41899"
   version="1.1"
   id="svg1"
   inkscape:export-filename="day.svg"
   inkscape:export-xdpi="36.285713"
   inkscape:export-ydpi="36.285713"
   sodipodi:docname="vwlogo.svg"
   inkscape:version="1.3 (0e150ed6c4, 2023-07-21)"
   xmlns:inkscape="http://www.inkscape.org/namespaces/inkscape"
   xmlns:sodipodi="http://sodipodi.sourceforge.net/DTD/sodipodi-0.dtd"
   xmlns="http://www.w3.org/2000/svg"
   xmlns:svg="http://www.w3.org/2000/svg">
  <sodipodi:namedview
     id="namedview1"
     pagecolor="#ffffff"
     bordercolor="#000000"
     borderopacity="0.25"
     inkscape:showpageshadow="2"
     inkscape:pageopacity="0.0"
     inkscape:pagecheckerboard="0"
     inkscape:deskcolor="#d1d1d1"
     inkscape:document-units="mm"
     showguides="true"
     inkscape:zoom="0.53050295"
     inkscape:cx="-82.940161"
     inkscape:cy="447.68837"
     inkscape:window-width="2560"
     inkscape:window-height="1369"
     inkscape:window-x="-8"
     inkscape:window-y="-8"
     inkscape:window-maximized="1"
     inkscape:current-layer="layer1" />
  <defs
     id="defs1">
    <linearGradient
       id="swatch25"
       inkscape:swatch="solid">
      <stop
         style="stop-color:#eeb42e;stop-opacity:1;"
         offset="0"
         id="stop25" />
    </linearGradient>
  </defs>
  <g
     inkscape:label="Layer 1"
     inkscape:groupmode="layer"
     id="layer1"
     transform="translate(249.62073,163.63441)">
    <path
       id="path31-3-5-8"
       style="fill:#85bbf6;fill-opacity:1;stroke:#ffffff;stroke-width:0;stroke-dasharray:none;stroke-opacity:1"
       d="m -157.2344,-143.87612 c -12.44837,0.0149 -20.07503,9.70901 -23.38605,23.30559 -3.29572,-3.30003 -7.56918,-5.12583 -11.99913,-5.12655 -9.91929,8e-5 -17.96045,8.96424 -17.96063,20.02222 0.0134,0.31619 0.0336,0.63198 0.0605,0.94712 -1.58604,-0.50071 -3.22637,-0.75561 -4.87478,-0.75755 -9.91942,7e-5 -17.96064,8.964514 -17.96061,20.022638 -3e-5,11.058113 8.04119,20.022518 17.96061,20.022595 0.24116,-0.01396 0.48202,-0.0333 0.72247,-0.05791 l 6.2068,-0.01105 c 28.31186,-0.256689 50.36591,-0.444483 65.64092,-0.861643 15.275,-0.417123 17.51332,-0.994909 19.30378,-4.235786 1.79049,-3.240881 3.13314,-9.144747 4.02838,-16.236139 0.89525,-7.091392 1.34291,-15.369785 -0.22378,-22.846215 -1.56671,-7.47647 -5.14752,-14.15075 -9.17615,-19.2206 -2.47284,-3.11199 -5.11189,-5.61358 -7.4691,-7.55364 -1.75393,-1.63403 -3.67854,-3.01745 -5.73053,-4.11915 -1.85126,-1.13546 -2.8232,-1.29994 -3.95779,-1.7504 l -0.38675,-0.0859 c -2.44494,-0.78429 -5.17453,-1.45458 -7.71557,-1.45773 z"
       sodipodi:nodetypes="ccccccccccssssscccccc" />
    <path
       id="path31-1-7"
       style="fill:#b2d4fa;fill-opacity:1;stroke:#ffffff;stroke-width:0;stroke-dasharray:none;stroke-opacity:1"
       d="m -157.14637,-145.358 c -12.08277,0.0146 -22.67255,9.25246 -25.88635,22.58174 -3.19892,-3.23516 -7.34687,-5.02506 -11.64673,-5.02578 -9.62794,7e-5 -17.43295,8.78801 -17.43312,19.62858 0.013,0.30997 0.0326,0.61955 0.0587,0.92848 -1.53944,-0.49084 -3.1316,-0.74074 -4.73159,-0.74264 -9.62808,7e-5 -17.43315,8.788261 -17.43311,19.628963 -3e-5,10.840723 7.80503,19.628885 17.43311,19.628955 0.23408,-0.01367 0.46786,-0.03265 0.70126,-0.05677 l 6.0245,-0.01067 c 27.48037,-0.251647 48.88666,-0.435751 63.71305,-0.844697 14.82638,-0.408945 16.99894,-0.975364 18.73683,-4.152529 1.7379,-3.177172 3.04112,-8.964944 3.91005,-15.916917 0.86898,-6.951962 1.30347,-15.067625 -0.21722,-22.397055 -1.52067,-7.32942 -4.99632,-13.87249 -8.90662,-18.84265 -2.40022,-3.05081 -4.96175,-5.50322 -7.24975,-7.40514 -1.70241,-1.60189 -3.5705,-2.95812 -5.56222,-4.03815 -1.79689,-1.11313 -2.74029,-1.27439 -3.84155,-1.71599 l -0.3754,-0.0841 c -2.37312,-0.76886 -4.82742,-1.16032 -7.29383,-1.16341 z"
       sodipodi:nodetypes="ccccccccccsssssccccc" />
    <path
       id="path31-3-5"
       style="fill:#268af4;fill-opacity:1;stroke:#ffffff;stroke-width:0;stroke-dasharray:none;stroke-opacity:1"
       d="m -115.07326,-129.87509 c -17.63883,0.0198 -28.44548,12.92662 -33.13706,31.029202 -4.66991,-4.393672 -10.72523,-6.824562 -17.0023,-6.825522 -14.05522,1.1e-4 -25.44922,11.935049 -25.44947,26.6577 0.019,0.420984 0.0477,0.841428 0.0857,1.261013 -2.24735,-0.666654 -4.57163,-1.006031 -6.90736,-1.008605 -14.0554,9.2e-5 -25.4495,11.9354 -25.44945,26.658256 -4e-5,14.722846 11.39405,26.658111 25.44945,26.658213 0.34172,-0.01858 0.683,-0.04432 1.02372,-0.07711 l 8.79478,-0.01471 c 40.11676,-0.341758 71.36644,-0.591787 93.010514,-1.147197 21.644067,-0.555359 24.815654,-1.324627 27.352684,-5.63955 2.537041,-4.314933 4.439525,-12.175367 5.708046,-21.616893 1.268531,-9.441525 1.902835,-20.463429 -0.317092,-30.417595 -2.21996,-9.954227 -7.293845,-18.840392 -13.002231,-25.590422 -3.503914,-4.14333 -7.243342,-7.47395 -10.583407,-10.05697 -2.485254,-2.17555 -5.212355,-4.01744 -8.119933,-5.48425 -2.623157,-1.51176 -4.000367,-1.73076 -5.608027,-2.33049 l -0.54802,-0.11436 c -3.464374,-1.04419 -7.332104,-1.93664 -10.932644,-1.94082 z"
       sodipodi:nodetypes="ccccccccccssssscccccc" />
    <path
       id="path31-1"
       style="fill:#83baf7;fill-opacity:1;stroke:#ffffff;stroke-width:0;stroke-dasharray:none;stroke-opacity:1"
       d="m -114.94853,-131.84809 c -17.12078,0.0194 -32.12608,12.31879 -36.67988,30.06548 -4.53274,-4.30732 -10.41023,-6.6904 -16.50295,-6.69134 -13.64241,9e-5 -24.70179,11.700397 -24.70202,26.133589 0.0185,0.412713 0.0462,0.824884 0.0832,1.236197 -2.18133,-0.65351 -4.43735,-0.986229 -6.70447,-0.988762 -13.6426,1.02e-4 -24.70207,11.700748 -24.70201,26.13413 -4e-5,14.433401 11.05941,26.134017 24.70201,26.134111 0.33168,-0.01821 0.66295,-0.04348 0.99365,-0.07559 l 8.53647,-0.01422 c 38.93856,-0.335045 69.27041,-0.580162 90.278794,-1.124635 21.008385,-0.544472 24.086822,-1.298605 26.549345,-5.528706 2.462534,-4.230102 4.309145,-11.935984 5.540378,-21.191883 1.231301,-9.25588 1.846968,-20.061127 -0.307782,-29.819573 -2.154741,-9.758446 -7.079585,-18.469918 -12.620322,-25.087228 -3.401028,-4.06186 -7.030608,-7.32701 -10.272599,-9.85926 -2.412254,-2.13275 -5.05927,-3.93846 -7.88144,-5.37641 -2.546134,-1.48203 -3.882904,-1.69673 -5.443334,-2.28467 l -0.53191,-0.11212 c -3.36264,-1.02365 -6.84028,-1.54484 -10.33509,-1.54896 z"
       sodipodi:nodetypes="ccccccccccsssssccccc" />
    <rect
       style="fill:#ffffff;fill-opacity:0;stroke:#ffffff;stroke-width:0"
       id="rect3-8"
       width="206.1796"
       height="197.41898"
       x="-249.62073"
       y="-163.6344" />
  </g>
</svg>
