<?xml version="1.0" encoding="UTF-8" standalone="no"?>
<!-- Created with Inkscape (http://www.inkscape.org/) -->

<svg
   width="206.1796mm"
   height="197.41901mm"
   viewBox="0 0 206.1796 197.41901"
   version="1.1"
   id="svg1"
   inkscape:export-filename="day.svg"
   inkscape:export-xdpi="36.285713"
   inkscape:export-ydpi="36.285713"
   sodipodi:docname="vwlogo.svg"
   inkscape:version="1.3 (0e150ed6c4, 2023-07-21)"
   xmlns:inkscape="http://www.inkscape.org/namespaces/inkscape"
   xmlns:sodipodi="http://sodipodi.sourceforge.net/DTD/sodipodi-0.dtd"
   xmlns="http://www.w3.org/2000/svg"
   xmlns:svg="http://www.w3.org/2000/svg">
  <sodipodi:namedview
     id="namedview1"
     pagecolor="#ffffff"
     bordercolor="#000000"
     borderopacity="0.25"
     inkscape:showpageshadow="2"
     inkscape:pageopacity="0.0"
     inkscape:pagecheckerboard="0"
     inkscape:deskcolor="#d1d1d1"
     inkscape:document-units="mm"
     showguides="true"
     inkscape:zoom="0.53050295"
     inkscape:cx="-82.940161"
     inkscape:cy="447.68837"
     inkscape:window-width="2560"
     inkscape:window-height="1369"
     inkscape:window-x="-8"
     inkscape:window-y="-8"
     inkscape:window-maximized="1"
     inkscape:current-layer="layer1" />
  <defs
     id="defs1">
    <linearGradient
       id="swatch25"
       inkscape:swatch="solid">
      <stop
         style="stop-color:#eeb42e;stop-opacity:1;"
         offset="0"
         id="stop25" />
    </linearGradient>
  </defs>
  <g
     inkscape:label="Layer 1"
     inkscape:groupmode="layer"
     id="layer1"
     transform="translate(507.52961,-110.21116)">
    <path
       id="path31-3-5-8-2"
       style="fill:#85bbf6;fill-opacity:1;stroke:#ffffff;stroke-width:0;stroke-dasharray:none;stroke-opacity:1"
       d="m -411.65208,127.47575 c -12.44837,0.0149 -20.07503,9.70901 -23.38605,23.30559 -3.29572,-3.30003 -7.56918,-5.12583 -11.99913,-5.12655 -9.91929,8e-5 -17.96045,8.96424 -17.96063,20.02222 0.0134,0.31619 0.0336,0.63198 0.0605,0.94712 -1.58604,-0.50071 -3.22637,-0.75561 -4.87478,-0.75755 -9.91942,7e-5 -17.96064,8.96451 -17.96061,20.02263 -3e-5,11.05812 8.04119,20.02252 17.96061,20.0226 0.24116,-0.014 0.48202,-0.0333 0.72247,-0.0579 l 6.2068,-0.0111 c 28.31186,-0.25669 50.36591,-0.44448 65.64092,-0.86164 15.275,-0.41713 17.51332,-0.99491 19.30378,-4.23579 1.79049,-3.24088 3.13314,-9.14475 4.02838,-16.23614 0.89525,-7.09139 1.34291,-15.36978 -0.22378,-22.84621 -1.56671,-7.47647 -5.14752,-14.15075 -9.17615,-19.2206 -2.47284,-3.11199 -5.11189,-5.61358 -7.4691,-7.55364 -1.75393,-1.63403 -3.67854,-3.01745 -5.73053,-4.11915 -1.85126,-1.13546 -2.8232,-1.29994 -3.95779,-1.7504 l -0.38675,-0.0859 c -2.44494,-0.78429 -5.17453,-1.45458 -7.71557,-1.45773 z"
       sodipodi:nodetypes="ccccccccccssssscccccc" />
    <path
       id="path31-1-7-7"
       style="fill:#b2d4fa;fill-opacity:1;stroke:#ffffff;stroke-width:0;stroke-dasharray:none;stroke-opacity:1"
       d="m -411.56405,125.99387 c -12.08277,0.0146 -22.67255,9.25246 -25.88635,22.58174 -3.19892,-3.23516 -7.34687,-5.02506 -11.64673,-5.02578 -9.62794,7e-5 -17.43295,8.78801 -17.43312,19.62858 0.013,0.30997 0.0326,0.61955 0.0587,0.92848 -1.53944,-0.49084 -3.1316,-0.74074 -4.73159,-0.74264 -9.62808,7e-5 -17.43315,8.78826 -17.43311,19.62896 -3e-5,10.84072 7.80503,19.62888 17.43311,19.62895 0.23408,-0.0137 0.46786,-0.0326 0.70126,-0.0568 l 6.0245,-0.0107 c 27.48037,-0.25164 48.88666,-0.43575 63.71305,-0.84469 14.82638,-0.40895 16.99894,-0.97537 18.73683,-4.15253 1.7379,-3.17717 3.04112,-8.96495 3.91005,-15.91692 0.86898,-6.95196 1.30347,-15.06762 -0.21722,-22.39705 -1.52067,-7.32942 -4.99632,-13.87249 -8.90662,-18.84265 -2.40022,-3.05081 -4.96175,-5.50322 -7.24975,-7.40514 -1.70241,-1.60189 -3.5705,-2.95812 -5.56222,-4.03815 -1.79689,-1.11313 -2.74029,-1.27439 -3.84155,-1.71599 l -0.3754,-0.0841 c -2.37312,-0.76886 -4.82742,-1.16032 -7.29383,-1.16341 z"
       sodipodi:nodetypes="ccccccccccsssssccccc" />
    <path
       id="path31-3-5-6"
       style="fill:#268af4;fill-opacity:1;stroke:#ffffff;stroke-width:0;stroke-dasharray:none;stroke-opacity:1"
       d="m -369.49094,141.47678 c -17.63883,0.0198 -28.44548,12.92662 -33.13706,31.0292 -4.66991,-4.39367 -10.72523,-6.82456 -17.0023,-6.82552 -14.05522,1.1e-4 -25.44922,11.93505 -25.44947,26.6577 0.019,0.42098 0.0477,0.84142 0.0857,1.26101 -2.24735,-0.66665 -4.57163,-1.00603 -6.90736,-1.00861 -14.0554,1e-4 -25.4495,11.9354 -25.44945,26.65826 -4e-5,14.72285 11.39405,26.65811 25.44945,26.65821 0.34172,-0.0186 0.683,-0.0443 1.02372,-0.0771 l 8.79478,-0.0147 c 40.11676,-0.34175 71.36644,-0.59178 93.01052,-1.14719 21.64406,-0.55536 24.81565,-1.32463 27.35268,-5.63955 2.53704,-4.31494 4.43952,-12.17537 5.70805,-21.6169 1.26853,-9.44152 1.90283,-20.46343 -0.3171,-30.41759 -2.21996,-9.95423 -7.29384,-18.84039 -13.00223,-25.59042 -3.50391,-4.14333 -7.24334,-7.47395 -10.5834,-10.05697 -2.48526,-2.17555 -5.21236,-4.01744 -8.11994,-5.48425 -2.62315,-1.51176 -4.00036,-1.73076 -5.60802,-2.33049 l -0.54802,-0.11436 c -3.46438,-1.04419 -7.33211,-1.93664 -10.93265,-1.94082 z"
       sodipodi:nodetypes="ccccccccccssssscccccc" />
    <path
       id="path31-1-6"
       style="fill:#83baf7;fill-opacity:1;stroke:#ffffff;stroke-width:0;stroke-dasharray:none;stroke-opacity:1"
       d="m -369.36621,139.50378 c -17.12078,0.0194 -32.12608,12.31879 -36.67988,30.06548 -4.53274,-4.30732 -10.41023,-6.6904 -16.50295,-6.69134 -13.64241,9e-5 -24.70179,11.70039 -24.70202,26.13359 0.0185,0.41271 0.0462,0.82488 0.0832,1.23619 -2.18133,-0.65351 -4.43735,-0.98623 -6.70447,-0.98876 -13.6426,1e-4 -24.70207,11.70075 -24.70201,26.13413 -4e-5,14.4334 11.05941,26.13402 24.70201,26.13411 0.33168,-0.0182 0.66295,-0.0435 0.99365,-0.0756 l 8.53647,-0.0142 c 38.93856,-0.33504 69.27041,-0.58016 90.2788,-1.12463 21.00838,-0.54448 24.08682,-1.29861 26.54934,-5.52871 2.46253,-4.2301 4.30915,-11.93598 5.54038,-21.19188 1.2313,-9.25588 1.84697,-20.06113 -0.30778,-29.81958 -2.15474,-9.75844 -7.07959,-18.46991 -12.62033,-25.08722 -3.40102,-4.06186 -7.0306,-7.32701 -10.27259,-9.85926 -2.41226,-2.13275 -5.05927,-3.93846 -7.88144,-5.37641 -2.54614,-1.48203 -3.88291,-1.69673 -5.44334,-2.28467 l -0.53191,-0.11212 c -3.36264,-1.02365 -6.84028,-1.54484 -10.33509,-1.54896 z"
       sodipodi:nodetypes="ccccccccccsssssccccc" />
    <rect
       style="fill:#ffffff;fill-opacity:0;stroke:#ffffff;stroke-width:0"
       id="rect3-8-7"
       width="206.1796"
       height="197.41898"
       x="-507.5296"
       y="110.21117" />
    <rect
       style="fill:#378fef;fill-opacity:1;stroke:#ffffff;stroke-width:0"
       id="rect1"
       width="5.9848866"
       height="14.962216"
       x="-357.1517"
       y="352.42606"
       transform="rotate(13.827738)" />
    <rect
       style="fill:#378fef;fill-opacity:1;stroke:#ffffff;stroke-width:0"
       id="rect1-6"
       width="5.9848866"
       height="14.962216"
       x="-340.87997"
       y="365.89154"
       transform="rotate(13.827738)" />
    <rect
       style="fill:#378fef;fill-opacity:1;stroke:#ffffff;stroke-width:0"
       id="rect1-9"
       width="5.9848866"
       height="14.962216"
       x="-319.76913"
       y="343.73068"
       transform="rotate(13.827738)" />
    <rect
       style="fill:#378fef;fill-opacity:1;stroke:#ffffff;stroke-width:0"
       id="rect1-0"
       width="5.9848866"
       height="14.962216"
       x="-298.94266"
       y="359.07187"
       transform="rotate(13.827738)"
       inkscape:transform-center-x="4.9874055"
       inkscape:transform-center-y="13.964735" />
    <rect
       style="fill:#378fef;fill-opacity:1;stroke:#ffffff;stroke-width:0"
       id="rect1-00"
       width="5.9848866"
       height="14.962216"
       x="-318.88617"
       y="373.95895"
       transform="rotate(13.827738)" />
    <rect
       style="fill:#378fef;fill-opacity:1;stroke:#ffffff;stroke-width:0"
       id="rect1-01"
       width="5.9848866"
       height="14.962216"
       x="-283.43265"
       y="334.70798"
       transform="rotate(13.827738)" />
  </g>
</svg>
